<svg width="145" height="152" viewBox="0 0 145 152" fill="none" xmlns="http://www.w3.org/2000/svg">
<path d="M83.4765 86.2296C82.3001 86.5282 81.1543 87.0815 80.1102 87.8544C77.3901 89.8191 75.8076 92.6235 76.5757 94.1177C77.3439 95.6119 80.1716 95.2298 82.8916 93.2652C83.9498 92.5195 84.8898 91.5665 85.6538 90.4651C86.0083 89.9329 86.0719 89.2698 85.8163 88.7742L84.8184 86.833C84.5645 86.3358 84.0379 86.0993 83.4765 86.2296Z" fill="#D5D6DB"/>
<path d="M76.6459 59.7312C75.7929 59.9479 74.962 60.3492 74.2049 60.9098C72.233 62.334 71.0848 64.3674 71.6414 65.45C72.1979 66.5326 74.2491 66.2552 76.2207 64.8312C76.988 64.2902 77.6695 63.5988 78.2236 62.8001C78.4803 62.4144 78.5264 61.934 78.341 61.5746L77.6185 60.1691C77.4347 59.8086 77.0531 59.6368 76.6459 59.7312Z" fill="#D5D6DB"/>
<path d="M65.5483 60.8408C65.3585 60.8168 65.156 60.8742 64.9804 61.0013L60.3486 64.3471C59.9611 64.6261 59.8061 65.1634 60.0026 65.5474C60.0476 65.6354 60.1091 65.7105 60.1837 65.7685L71.5997 74.6869L87.0444 63.5305L65.5483 60.8408Z" fill="#029BC5"/>
<path d="M114.373 59.5798L72.3423 89.572L47.4757 100.788L34.794 103.645L33.3988 100.958L103.458 51.9271C105.546 50.4596 107.872 49.5588 110.2 49.3163C111.22 49.2162 112.227 49.2547 113.198 49.4302C114.059 49.5781 114.876 49.8635 115.624 50.2779C116.458 50.7474 118.047 50.8015 118.562 51.7369C118.564 51.7354 119.778 56.0296 114.373 59.5798Z" fill="#E1E6E9"/>
<path d="M72.8995 85.6035L54.7166 118.46C54.4895 118.922 54.6243 119.439 55.0174 119.615C55.2586 119.723 55.5539 119.68 55.8019 119.501L60.4301 116.173C61.3203 115.533 62.1085 114.719 62.746 113.783L98.0084 66.7915L72.8995 85.6035Z" fill="#029BC5"/>
<path d="M27.0165 84.5065C26.7132 84.389 26.3522 84.45 26.0475 84.6699L22.2218 87.4318C21.7005 87.8078 21.4927 88.5308 21.7576 89.0468C21.8081 89.1449 21.8737 89.2312 21.9522 89.3023L32.6711 99.033L43.9411 91.0539L27.0165 84.5065Z" fill="#029BC5"/>
<path d="M36.2638 100.787L30.4947 109.946C30.4101 110.077 30.43 110.243 30.5391 110.315C30.6177 110.366 30.7251 110.357 30.8124 110.291L34.3877 107.723C34.4154 107.703 34.4406 107.678 34.4614 107.649L42.8911 96.0314L36.2638 100.787Z" fill="#029BC5"/>
<path d="M112.508 49.8251C111.509 49.643 110.471 49.6042 109.421 49.7088C108.398 51.3297 107.745 53.1504 107.525 54.9895C107.509 55.3589 107.772 55.6248 108.112 55.5834C108.218 55.5704 108.323 55.5283 108.418 55.4608L115.007 50.7052C114.236 50.2747 113.395 49.9784 112.508 49.8251Z" fill="#029BC5"/>
<path d="M98.15 58.5699L102.452 55.4905L106.459 63.2153L102.157 66.2948L98.15 58.5699Z" fill="#D5D6DB"/>
<path d="M95.4431 61.6251C94.9248 61.9973 94.7176 62.7128 94.9807 63.223L95.4071 64.0495C95.6876 64.5467 96.3278 64.6341 96.8373 64.2447C97.3221 63.8738 97.5174 63.1997 97.2837 62.702L96.8574 61.8754C96.5944 61.3657 95.9615 61.2535 95.4431 61.6251Z" fill="#3A556A"/>
<path d="M91.5768 64.3468C91.0584 64.719 90.8512 65.4344 91.1144 65.9446L91.5408 66.7712C91.8212 67.2683 92.4615 67.3558 92.971 66.9663C93.4558 66.5955 93.651 65.9214 93.4174 65.4236L92.991 64.5971C92.7279 64.0875 92.0949 63.9753 91.5768 64.3468Z" fill="#3A556A"/>
<path d="M87.7091 67.0693C87.1913 67.442 86.9849 68.1566 87.2478 68.6663L87.6742 69.4928C87.9547 69.99 88.5949 70.0774 89.1044 69.688C89.5892 69.3171 89.7845 68.6431 89.5508 68.1453L89.1245 67.3188C88.8613 66.8086 88.2277 66.6969 87.7091 67.0693Z" fill="#3A556A"/>
<path d="M83.8428 69.7909C83.325 70.1636 83.1185 70.8782 83.3815 71.3879L83.8079 72.2145C84.0883 72.7116 84.7286 72.7991 85.2381 72.4096C85.7229 72.0388 85.9181 71.3647 85.6845 70.8669L85.2581 70.0404C84.9947 69.5304 84.3611 69.4187 83.8428 69.7909Z" fill="#3A556A"/>
<path d="M79.9767 72.5127C79.4585 72.8856 79.252 73.6005 79.5151 74.1105L79.9417 74.9374C80.2047 75.4471 80.838 75.5587 81.3562 75.1867C81.8744 74.8147 82.0813 74.0998 81.8183 73.5901L81.3917 72.7632C81.1294 72.2529 80.4963 72.1406 79.9777 72.512C79.9773 72.5123 79.9771 72.5124 79.9767 72.5127Z" fill="#3A556A"/>
<path d="M76.1103 75.2344C75.5922 75.6072 75.3856 76.3221 75.6487 76.8321L76.0754 77.659C76.3384 78.1688 76.9717 78.2804 77.4899 77.9083C78.0081 77.5363 78.215 76.8215 77.952 76.3117L77.5254 75.4848C77.263 74.9746 76.63 74.8622 76.1114 75.2336C76.111 75.2339 76.1105 75.2342 76.1103 75.2344Z" fill="#3A556A"/>
<path d="M72.2438 77.9561C71.7257 78.329 71.5192 79.0438 71.7823 79.5538L72.2089 80.3807C72.4725 80.8899 73.1061 81.0004 73.6238 80.6279C74.1406 80.256 74.347 79.5427 74.0853 79.0336L73.6587 78.2067C73.3958 77.6966 72.7625 77.5844 72.2438 77.9561Z" fill="#3A556A"/>
<path d="M68.3773 80.6778C67.8592 81.0506 67.6526 81.7655 67.9157 82.2755L68.3423 83.1024C68.606 83.6117 69.2396 83.7222 69.7572 83.3497C70.274 82.9778 70.4805 82.2644 70.2187 81.7553L69.7921 80.9284C69.5292 80.4182 68.8959 80.306 68.3773 80.6778Z" fill="#3A556A"/>
<path d="M64.5109 83.3994C63.9928 83.7723 63.7863 84.4871 64.0494 84.9971L64.476 85.824C64.7396 86.3332 65.3732 86.4438 65.8909 86.0712C66.4077 85.6993 66.6141 84.986 66.3524 84.4769L65.9258 83.65C65.6627 83.14 65.0294 83.0278 64.5109 83.3994Z" fill="#3A556A"/>
<path d="M60.6434 86.1218C60.1252 86.4939 59.9183 87.2087 60.1813 87.7185L60.1818 87.7195L60.6084 88.5464C60.8721 89.0557 61.5057 89.1663 62.0233 88.7937C62.5401 88.4218 62.7466 87.7085 62.4848 87.1993L62.0582 86.3724C61.7953 85.8623 61.162 85.7501 60.6434 86.1218Z" fill="#3A556A"/>
<path d="M56.778 88.8427C56.2598 89.2148 56.0529 89.9296 56.3159 90.4393L56.3165 90.4404L56.7431 91.2673C57.0067 91.7766 57.6403 91.8871 58.158 91.5146C58.6748 91.1427 58.8813 90.4293 58.6195 89.9202L58.1929 89.0933C57.9298 88.5834 57.2965 88.4711 56.778 88.8427Z" fill="#3A556A"/>
</svg>
